<?xml version="1.0" encoding="UTF-8" standalone="no"?>
<svg
   xmlns:dc="http://purl.org/dc/elements/1.1/"
   xmlns:cc="http://creativecommons.org/ns#"
   xmlns:rdf="http://www.w3.org/1999/02/22-rdf-syntax-ns#"
   xmlns:svg="http://www.w3.org/2000/svg"
   xmlns="http://www.w3.org/2000/svg"
   xmlns:sodipodi="http://sodipodi.sourceforge.net/DTD/sodipodi-0.dtd"
   xmlns:inkscape="http://www.inkscape.org/namespaces/inkscape"
   width="101"
   height="148"
   viewBox="0 0 73.83958 108.20078"
   version="1.1"
   id="svg933"
   inkscape:version="1.0.1 (3bc2e813f5, 2020-09-07)"
   sodipodi:docname="img-panda.svg">
  <defs
     id="defs927" />
  <sodipodi:namedview
     id="base"
     pagecolor="#ffffff"
     bordercolor="#666666"
     borderopacity="1.0"
     inkscape:pageopacity="0.0"
     inkscape:pageshadow="2"
     inkscape:zoom="2.8"
     inkscape:cx="90.766917"
     inkscape:cy="117.99905"
     inkscape:document-units="mm"
     inkscape:current-layer="layer1"
     inkscape:document-rotation="0"
     showgrid="false"
     units="px"
     inkscape:window-width="611"
     inkscape:window-height="1012"
     inkscape:window-x="2885"
     inkscape:window-y="44"
     inkscape:window-maximized="0" />
  <metadata
     id="metadata930">
    <rdf:RDF>
      <cc:Work
         rdf:about="">
        <dc:format>image/svg+xml</dc:format>
        <dc:type
           rdf:resource="http://purl.org/dc/dcmitype/StillImage" />
        <dc:title></dc:title>
      </cc:Work>
    </rdf:RDF>
  </metadata>
  <g
     inkscape:label="Layer 1"
     inkscape:groupmode="layer"
     id="layer1">
    <path
       style="fill:#ffffff;fill-opacity:1;stroke:#000000;stroke-width:0.264583px;stroke-linecap:butt;stroke-linejoin:miter;stroke-opacity:1"
       d="m 0.66950954,2.3941339 c 0,0 -0.75176,21.6470311 -0.47666,34.7701711 0.2751,13.123135 1.34306996,36.956455 1.34306996,40.631055 0,3.67458 0.13245,4.81081 0.13245,4.81081 0,0 2.24435,-0.55534 6.80359,-0.717 C 13.0312,81.72752 43.14807,81.41001 52.09643,81.19893 61.04479,80.98787 71.2913,81.0692 71.2913,81.0692 c 0,0 -0.4275,-8.72237 -0.22656,-13.58039 0.20094,-4.85802 0.63077,-17.23975 0.39066,-24.581576 -0.24011,-7.341828 -1.18466,-21.590339 -1.38234,-26.693429 -0.19768,-5.10308 0.14649,-15.1698811 0.14649,-15.1698811 0,0 -11.39094,-0.85189 -15.72655,-0.9086 -4.33561,-0.0567 -34.38556,0.70014 -41.27539,1.24424 -6.8898405,0.5441 -12.54810046,1.01457 -12.54810046,1.01457 z"
       id="path1113-6"
       inkscape:export-xdpi="96"
       inkscape:export-ydpi="96" />
    <path
       style="fill:#b9e3ec;fill-opacity:1;stroke:#000000;stroke-width:0.264583px;stroke-linecap:round;stroke-linejoin:round;stroke-opacity:1"
       d="m 8.3360895,6.8617649 c 0.62409,9.5598801 -0.17452,9.4861901 -0.20714,23.9059921 -0.0326,14.419803 0.79195,26.175883 1.09253,29.891643 0.30058,3.71577 0.28376,3.75365 0.28376,3.75365 0,0 8.4170605,-0.69495 14.3861005,-0.93957 l 5.96904,-0.24461 c 0,0 9.55558,-0.35312 21.9408,-0.46349 12.38522,-0.11034 13.79615,-0.1159 13.79615,-0.1159 0,0 -0.28998,-8.54452 -0.27445,-21.226445 0.0155,-12.681929 -0.39445,-34.8913201 -0.39445,-34.8913201 0,0 -18.1082,-0.80298 -27.82513,-0.892631 -9.71692,-0.0897 -28.7672105,1.222681 -28.7672105,1.222681 z"
       id="path1146-7"
       sodipodi:nodetypes="csscscscsccc"
       inkscape:export-xdpi="96"
       inkscape:export-ydpi="96" />
    <path
       style="fill:#342f45;fill-opacity:1;stroke:#000000;stroke-width:0.264583px;stroke-linecap:butt;stroke-linejoin:miter;stroke-opacity:1"
       d="m 61.1779,51.0947 c 4.41943,11.55478 3.49835,11.53082 3.49835,11.53082 l -16.36053,0.0915 1.90553,-7.05953 z"
       id="path1148-5"
       sodipodi:nodetypes="ccccc"
       inkscape:export-xdpi="96"
       inkscape:export-ydpi="96" />
    <path
       style="fill:#8a5849;fill-opacity:1;stroke:none;stroke-width:0.264583px;stroke-linecap:round;stroke-linejoin:miter;stroke-opacity:1"
       d="m 8.4717795,38.637925 c 1.31133,-0.583379 4.6802005,0.0347 2.6749205,-0.389469 -0.64192,-0.135771 0.66865,-1.203971 10.65309,-0.959242 l 9.603,25.804756 -14.92527,0.85502 -6.9722805,0.46406 c 0,0 -0.87398,-12.18982 -0.97209,-14.3484 -0.0981,-2.15856 -0.33463,-10.991975 -0.33463,-10.991975 z"
       id="path1144-3"
       sodipodi:nodetypes="csc"
       inkscape:export-xdpi="96"
       inkscape:export-ydpi="96" />
    <path
       style="fill:none;stroke:#000000;stroke-width:0.264583px;stroke-linecap:round;stroke-linejoin:round;stroke-opacity:1"
       d="m 8.3360895,6.8617649 c 0.62409,9.5598801 -0.17452,9.4861901 -0.20714,23.9059921 -0.0326,14.419803 0.79195,26.175883 1.09253,29.891643 0.30058,3.71577 0.28376,3.75365 0.28376,3.75365 0,0 8.4170605,-0.69495 14.3861005,-0.93957 l 5.96904,-0.24461 c 0,0 9.55558,-0.35312 21.9408,-0.46349 12.38522,-0.11034 13.79615,-0.1159 13.79615,-0.1159 0,0 -0.28998,-8.54452 -0.27445,-21.226445 0.0155,-12.681929 -0.39445,-34.8913201 -0.39445,-34.8913201 0,0 -18.1082,-0.80298 -27.82513,-0.892631 -9.71692,-0.0897 -28.7672105,1.222681 -28.7672105,1.222681 z"
       id="path1111-5"
       sodipodi:nodetypes="csscscscsccc"
       inkscape:export-xdpi="96"
       inkscape:export-ydpi="96" />
    <path
       style="fill:#342f45;fill-opacity:1;stroke:none;stroke-width:0.264583px;stroke-linecap:round;stroke-linejoin:miter;stroke-opacity:1"
       d="m 34.2633,104.76523 c 4.60346,1.31178 4.36356,-1.86677 4.36356,-1.86677 0,0 0.29365,-2.1326 -2.36196,-4.80184 L 21.07375,53.11546 16.91648,57.96567 Z"
       id="path1142-6"
       sodipodi:nodetypes="ccc"
       inkscape:export-xdpi="96"
       inkscape:export-ydpi="96" />
    <path
       style="fill:#342f45;fill-opacity:1;stroke:none;stroke-width:0.264583px;stroke-linecap:round;stroke-linejoin:miter;stroke-opacity:1"
       d="m 38.62686,102.89846 c 1.7119,-0.11325 1.33168,-1.96746 0.88918,-4.42006 -0.43663,-2.42007 -4.94718,-8.52505 -4.94718,-8.52505 0,0 0.1671,-0.79486 -1.8261,-9.93038 -1.9932,-9.13553 1.15772,-9.94113 -2.88238,-16.7941 L 37.78904,62.83208 21.82561,44.40217 c 0,0 -2.33803,5.08679 -3.63651,7.97187 -1.29849,2.88509 -1.27259,5.59163 -1.27259,5.59163 l 21.71038,44.93279"
       id="path1138-2"
       sodipodi:nodetypes="cscscccscc"
       inkscape:export-xdpi="96"
       inkscape:export-ydpi="96" />
    <path
       style="fill:#f8e1db;fill-opacity:1;stroke:#000000;stroke-width:0.264583px;stroke-linecap:round;stroke-linejoin:miter;stroke-opacity:1"
       d="m 21.8256,44.40206 c 0.92413,-5.761026 -0.91147,-11.263803 -1.31657,-12.619566 -0.4051,-1.355748 -0.941,-3.182418 0.22787,-3.896378 1.16887,-0.713952 1.94531,-0.008 3.87796,0.19368 1.93266,0.201279 2.93275,0.125328 3.88641,0.69877 0.95367,0.57344 2.56562,2.183638 4.11006,2.96975 1.54443,0.786108 3.02557,1.165878 3.02557,1.165878"
       id="path144-9"
       inkscape:export-xdpi="96"
       inkscape:export-ydpi="96" />
    <path
       style="fill:#745460;fill-opacity:1;stroke:#000000;stroke-width:0.264583px;stroke-linecap:round;stroke-linejoin:miter;stroke-opacity:1"
       d="m 23.21879,42.161085 c 0.96079,-3.94208 -0.27152,-9.67527 -0.0776,-10.311699 0.19395,-0.63642 0.76386,0.298069 1.05627,0.252418 0.29242,-0.0456 -1.42924,-0.633738 -1.50086,-1.93344 -0.0716,-1.299699 0.94619,-1.71518 1.56086,-1.92196 0.61467,-0.206769 3.70805,-0.213018 5.46451,1.604291 2.4543,2.53932 1.74365,3.182511 5.91493,3.063499"
       id="path152-1"
       sodipodi:nodetypes="cscsssc"
       inkscape:export-xdpi="96"
       inkscape:export-ydpi="96" />
    <path
       style="fill:none;stroke:#000000;stroke-width:0.264583px;stroke-linecap:round;stroke-linejoin:miter;stroke-opacity:1"
       d="m 29.86038,63.22887 c 4.0401,6.85297 0.88918,7.65857 2.88238,16.7941 1.9932,9.13552 1.8261,9.93038 1.8261,9.93038 0,0 4.51055,6.10498 4.94718,8.52505 0.4425,2.4526 0.82272,4.30681 -0.88918,4.42006"
       id="path170-2"
       sodipodi:nodetypes="cscsc"
       inkscape:export-xdpi="96"
       inkscape:export-ydpi="96" />
    <path
       style="fill:#342f45;fill-opacity:1;stroke:#000000;stroke-width:0.264583px;stroke-linecap:round;stroke-linejoin:miter;stroke-opacity:1"
       d="m 36.2649,98.09662 c 2.65561,2.66924 2.36196,4.80184 2.36196,4.80184 0,0 0.2399,3.17855 -4.36356,1.86677"
       id="path172-7"
       sodipodi:nodetypes="ccc"
       inkscape:export-xdpi="96"
       inkscape:export-ydpi="96" />
    <path
       style="fill:#f8e1db;fill-opacity:1;stroke:#000000;stroke-width:0.264583px;stroke-linecap:round;stroke-linejoin:miter;stroke-opacity:1"
       d="m 51.13823,32.233244 c 6.80766,0.859171 8.34857,-1.866778 9.51706,-2.50167 1.56195,-0.848669 2.6314,-0.448249 3.64779,-0.71465 1.01639,-0.266428 1.31826,-1.663219 2.22263,-0.88949 0.95618,0.818052 1.32946,3.99365 -0.83928,7.271372 -1.88237,2.844919 -2.0425,2.37961 -2.70718,8.096528"
       id="path188-0"
       sodipodi:nodetypes="cssssc"
       inkscape:export-xdpi="96"
       inkscape:export-ydpi="96" />
    <path
       style="fill:#745460;fill-opacity:1;stroke:#000000;stroke-width:0.264583px;stroke-linecap:round;stroke-linejoin:miter;stroke-opacity:1"
       d="m 54.74985,34.442094 c 4.20132,-0.120539 5.17603,-2.596949 7.00239,-2.861749 2.73845,-0.397039 3.27558,-1.951191 4.23787,-2.274361 0.58804,-0.19748 1.23957,0.191762 1.23299,1.498912 -0.007,1.307158 -0.21333,2.75544 -1.80243,5.076259 -1.58909,2.32083 -3.68341,4.25101 -2.44142,7.614179"
       id="path1099-9"
       sodipodi:nodetypes="csscsc"
       inkscape:export-xdpi="96"
       inkscape:export-ydpi="96" />
    <path
       id="path174-3"
       style="fill:#dc836c;fill-opacity:1;stroke:#000000;stroke-width:0.264583px;stroke-linecap:round;stroke-linejoin:round;stroke-opacity:1"
       d="m 42.18093,29.240825 c -2.03123,1.022231 -3.00884,0.62638 -6.54379,3.67316 -0.89916,0.614291 -1.70766,1.750571 -2.7311,1.651072 -0.60987,-0.0706 -0.50652,-0.388361 -0.44752,-0.690923 -2.17803,1.22773 -3.15043,2.875913 -4.72581,4.313952 0.41009,-0.822441 0.11862,-1.181261 -0.22789,-1.50378 -0.5364,-0.0776 -1.60549,2.051579 -2.65875,4.11654 -0.1962,0.28194 -0.26192,-0.64367 -0.34572,-1.40508 -0.61492,0.63939 -0.86257,1.83121 -1.28157,2.765208 0,0 -0.33894,1.351672 -1.3932,2.241196 l -1.16323,1.20613 c -1.16325,1.20609 -1.57535,0.5045 -1.95131,0.99323 -0.37596,0.48872 1.44396,1.65419 1.10381,1.5844 -0.34015,-0.0698 -1.07991,-0.45121 -1.42007,-0.55862 -0.34015,-0.10743 -0.1375,0.37634 0.24443,1.46656 0.38194,1.09025 0.93121,1.88517 0.93121,1.88517 0,0 -0.77024,-0.24718 -1.08055,-0.21498 -0.31031,0.0322 0.13767,0.74656 0.64492,1.55754 0.50725,0.81095 1.60507,1.77198 1.60507,1.77198 -0.33509,0.0953 -0.5249,0.31854 -1.11569,0.18809 0,0 2.05276,2.99706 3.19257,4.23231 1.13981,1.23526 1.5126,4.40954 14.21773,4.32894 0,0 4.43362,0.0557 10.36216,-0.0532 5.92534,-0.10882 9.58141,-1.53484 12.43077,-3.44992 2.62537,-1.76456 4.75836,-5.62705 4.75836,-5.62705 -0.47154,0.11059 -1.8731,0.39761 -0.98495,0.0434 1.36893,-0.96138 1.13716,-1.50774 1.20716,-2.21589 -0.69732,0.35163 -1.16885,0.84204 -1.04903,0.2191 0.56807,-1.51198 1.96528,-3.08091 1.72651,-3.46025 -0.72413,0.50237 -0.49378,-0.14019 -1.50172,0.56379 0,0 0.29738,-1.32217 0.85731,-2.06911 -0.40793,-0.19063 -0.8045,0.25753 -1.25263,0.0853 0.61469,-3.16471 -2.03983,-5.216124 -4.08658,-7.425914 1.08577,1.026369 2.40938,1.93964 1.90841,0.911569 -0.5168,-1.561729 -3.07396,-3.35453 -4.8736,-4.789368 0.59133,0.0378 1.15403,0.36335 0.93793,-0.610812 -0.93795,0.610711 -2.03618,0.0386 -4.55838,-1.865008 -1.56802,-1.029211 -3.21454,-1.30424 -4.85293,-1.65571 0.47025,-0.35389 0.96993,-0.662842 1.09709,-1.54202 -2.4701,0.19391 -1.93867,-1.302941 -8.00882,0.9188 0.66259,-0.557591 0.79817,-1.064001 1.0294,-1.57974 z"
       inkscape:export-xdpi="96"
       inkscape:export-ydpi="96" />
    <path
       style="fill:#342f45;fill-opacity:1;stroke:#000000;stroke-width:0.264583px;stroke-linecap:round;stroke-linejoin:miter;stroke-opacity:1"
       d="m 16.91648,57.96567 c -1.11401,19.64141 2.14367,23.0441 4.57425,28.95323 2.43058,5.90912 3.82249,9.12887 4.65379,11.81001 0.83129,2.68116 4.68105,8.16534 7.14359,7.43903 3.71238,-1.09492 1.98778,-2.94554 0.18614,-6.290873"
       id="path183-6"
       sodipodi:nodetypes="csssc"
       inkscape:export-xdpi="96"
       inkscape:export-ydpi="96" />
    <path
       style="fill:none;stroke:#000000;stroke-width:0.264583px;stroke-linecap:round;stroke-linejoin:miter;stroke-opacity:1"
       d="m 21.79979,37.289214 c -9.98444,-0.244729 -11.29501,0.823471 -10.65309,0.959242 2.00528,0.42413 -1.3635905,-0.19391 -2.6749205,0.389469"
       id="path186-0"
       sodipodi:nodetypes="csc"
       inkscape:export-xdpi="96"
       inkscape:export-ydpi="96" />
    <path
       id="path192-6"
       style="fill:#36180f;fill-opacity:1;stroke:#000000;stroke-width:0.242;stroke-linecap:round;stroke-miterlimit:4;stroke-dasharray:none;stroke-opacity:1"
       d="m 35.64973,47.75487 c -0.28044,1.43151 -2.83479,2.12163 -4.6641,1.48812 -1.82929,-0.63353 -2.24084,-2.35077 -1.9604,-3.78225 0.28043,-1.43151 2.39536,-2.163354 4.22468,-1.52983 1.8293,0.63354 2.68026,2.39249 2.39982,3.82396 z"
       sodipodi:nodetypes="sssss"
       inkscape:export-xdpi="96"
       inkscape:export-ydpi="96" />
    <path
       id="path1084-2"
       style="fill:#36180f;fill-opacity:1;stroke:#000000;stroke-width:0.216075;stroke-linecap:round;stroke-miterlimit:4;stroke-dasharray:none;stroke-opacity:1"
       d="m 55.36327,45.75589 c 0,1.22373 -0.77409,2.5508 -2.365,2.98505 -1.80956,0.49394 -3.49452,-0.0736 -3.74728,-1.67941 -0.1763,-1.12004 0.76162,-3.21758 3.12632,-3.521405 1.63565,-0.21015 2.98596,0.992025 2.98596,2.215765 z"
       sodipodi:nodetypes="sssss"
       inkscape:export-xdpi="96"
       inkscape:export-ydpi="96" />
    <path
       style="fill:#f8e1db;fill-opacity:1;stroke:#000000;stroke-width:0.264583px;stroke-linecap:round;stroke-linejoin:miter;stroke-opacity:1"
       d="m 35.05734,39.786635 c -0.83123,0.51226 -0.46314,2.256941 0.65193,3.450291 0.72559,0.776524 2.59085,1.364734 1.72211,-1.054999 -1.09029,-3.036832 -2.37404,-2.395292 -2.37404,-2.395292 z"
       id="path1087-6"
       sodipodi:nodetypes="cssc"
       inkscape:export-xdpi="96"
       inkscape:export-ydpi="96" />
    <path
       style="fill:#f8e1db;fill-opacity:1;stroke:#000000;stroke-width:0.264583px;stroke-linecap:round;stroke-linejoin:miter;stroke-opacity:1"
       d="m 47.04565,43.270846 c 0.43254,1.167364 2.86484,-0.111742 3.35749,-0.460121 0.90258,-0.638271 1.83955,-1.970461 -0.30411,-1.96374 -3.0432,0.309401 -3.15177,2.458122 -3.05338,2.423861 z"
       id="path1089-1"
       sodipodi:nodetypes="cscc"
       inkscape:export-xdpi="96"
       inkscape:export-ydpi="96" />
    <path
       style="fill:#f8e1db;fill-opacity:1;stroke:#000000;stroke-width:0.264583px;stroke-linecap:round;stroke-linejoin:round;stroke-opacity:1"
       d="m 36.85724,62.8619 c -2.23623,0.0716 -6.01269,-5.91271 -3.28319,-9.34726 1.76411,-2.21981 3.11822,-1.86623 4.55747,-3.1477 1.43925,-1.28147 2.36255,-3.49475 2.36255,-3.49475 0,0 -0.20226,1.13374 0.24678,0.83518 0.44904,-0.29857 1.725,-3.17251 1.66225,-2.87328 -0.24397,1.16336 0.404,2.85128 0.6516,2.54721 0.31882,-0.39155 -0.12673,-3.31265 0.11008,-3.13884 0.23681,0.17381 1.20935,2.89241 1.26813,3.21594 0.0588,0.32352 0.35179,-0.16573 0.40121,-0.65657 0.0494,-0.49082 -0.0679,-1.16807 0.0992,-1.13593 0.16711,0.0321 0.34267,3.7808 2.54205,5.00363 2.19939,1.22282 4.712,2.24394 4.73175,5.6729 0.0197,3.42896 -3.42867,6.38479 -7.13932,6.50625 -3.71066,0.12146 -7.27876,-0.0166 -7.27876,-0.0166 z"
       id="path1091-8"
       sodipodi:nodetypes="ssscsssssssssscs"
       inkscape:export-xdpi="96"
       inkscape:export-ydpi="96" />
    <path
       style="fill:#000000;fill-opacity:1;stroke:#000000;stroke-width:0.264583px;stroke-linecap:round;stroke-linejoin:miter;stroke-opacity:1"
       d="m 42.41375,51.18433 c -3.48575,0.0433 -3.82778,1.4483 -3.56662,2.15296 0.26116,0.70467 0.99843,1.13353 3.27584,1.13505 2.27742,0.002 3.55316,-0.69206 3.37135,-1.81714 -0.18182,-1.12508 -1.68235,-1.40505 -2.05658,-1.46584 -0.37423,-0.0608 -1.02399,-0.005 -1.02399,-0.005 z"
       id="path1095-7"
       inkscape:export-xdpi="96"
       inkscape:export-ydpi="96" />
    <path
       style="fill:#f4a694;fill-opacity:1;stroke:none;stroke-width:0.264583px;stroke-linecap:butt;stroke-linejoin:miter;stroke-opacity:1"
       d="m 40.72648,58.63908 0.86342,-0.15348 0.49539,-0.32184 0.22138,-0.51663 c 0,0 0.51603,0.69845 0.51603,0.69845 l 0.54981,0.21014 1.82759,-0.13148 -2.30272,1.17923 z"
       id="path1121-9"
       inkscape:export-xdpi="96"
       inkscape:export-ydpi="96" />
    <path
       style="fill:#f4a694;fill-opacity:1;stroke:#000000;stroke-width:0.264583px;stroke-linecap:round;stroke-linejoin:miter;stroke-opacity:1"
       d="m 40.72648,58.63908 c 0.093,2.44403 0.83454,2.97362 2.34739,3.01051 1.51284,0.0369 1.96421,-1.02169 2.12623,-3.22535"
       id="path1097-2"
       sodipodi:nodetypes="csc"
       inkscape:export-xdpi="96"
       inkscape:export-ydpi="96" />
    <path
       style="fill:none;stroke:#000000;stroke-width:0.264583px;stroke-linecap:round;stroke-linejoin:miter;stroke-opacity:1"
       d="m 36.84306,58.26054 c 3.47792,0.35555 5.25996,0.55454 5.37158,-0.39284 0.11235,-0.95359 0.11848,-1.42181 0.11848,-1.42181 0.0366,-0.26461 -0.21585,2.0141 0.86311,2.04825 1.4355,0.0454 4.37623,-0.56865 4.37623,-0.56865"
       id="path1093-0"
       sodipodi:nodetypes="cscsc"
       inkscape:export-xdpi="96"
       inkscape:export-ydpi="96" />
    <path
       style="fill:none;stroke:#000000;stroke-width:0.2;stroke-linecap:round;stroke-linejoin:miter;stroke-miterlimit:4;stroke-dasharray:none;stroke-opacity:1"
       d="m 42.8227,58.34558 c 7.9e-4,1.54912 0.019,2.0272 0.019,2.0272"
       id="path1101-2"
       sodipodi:nodetypes="cc"
       inkscape:export-xdpi="96"
       inkscape:export-ydpi="96" />
    <path
       style="fill:#f8e1db;fill-opacity:1;stroke:#000000;stroke-width:0.264583px;stroke-linecap:round;stroke-linejoin:round;stroke-opacity:1"
       d="m 28.23886,59.05021 c -1.0792,0.63129 -2.57906,-1.23272 -3.49953,-2.55298 -0.92047,-1.32025 -1.67095,-3.38644 -1.15414,-3.92508 0.30459,-0.31747 0.77849,0.1198 0.95653,0.0565 0.17805,-0.0633 -0.83888,-1.28062 -0.20799,-1.61537 0.63089,-0.33472 1.12995,0.14931 1.26446,0.0872 0.13451,-0.0621 -1.66339,-2.7759 0.83236,-1.43904 2.49574,1.33685 3.0425,2.64924 2.35653,3.02744 -0.68598,0.37822 -1.13576,0.33413 -0.7474,2.41673 0.26747,1.43431 0.46509,1.55603 0.23506,1.87069 -0.16543,0.2263 -0.58143,-0.0334 -0.58143,-0.0334 0,0 0.62218,1.1271 0.62218,1.5201 0,0.393 -0.0766,0.58718 -0.0766,0.58718 z"
       id="path1105-3"
       sodipodi:nodetypes="sssssssssscscs"
       inkscape:export-xdpi="96"
       inkscape:export-ydpi="96" />
    <path
       style="fill:#f8e1db;fill-opacity:1;stroke:#000000;stroke-width:0.264583px;stroke-linecap:butt;stroke-linejoin:miter;stroke-opacity:1"
       d="m 56.60129,57.59134 c 0.82659,-0.23868 1.36912,-1.01945 2.03096,-2.34702 0.70292,-1.41 0.85864,-2.50475 0.94135,-2.78951 0.23112,-0.79572 -0.63689,0.0188 -0.74353,-0.0944 -0.10663,-0.1132 0.0985,-0.39513 0.36909,-0.77882 0.38707,-0.54882 0.4172,-1.51153 -0.25563,-0.86605 -1.06279,0.88925 -0.012,-0.52723 0.15479,-0.95269 0.0941,-0.23987 -0.40311,-0.60746 -1.50812,-0.0214 -1.10501,0.58601 -2.30687,1.21659 -2.1583,1.72717 0,0 0.53145,0.55408 0.66547,1.00122 0.13401,0.44713 0.33164,0.97105 -0.2056,1.68483 -0.53724,0.71379 -1.24976,2.4902 -0.65293,2.3603 0.59683,-0.12988 -0.49435,1.00679 -0.32619,1.23516 0.16817,0.2284 0.72916,0.1183 0.72916,0.1183 z"
       id="path1107-7"
       sodipodi:nodetypes="ssssscssssssscs"
       inkscape:export-xdpi="96"
       inkscape:export-ydpi="96" />
  </g>
</svg>
